<mxfile host="app.diagrams.net" modified="2020-10-09T09:45:47.134Z" agent="5.0 (Windows)" etag="cnUtY_LUA6BjmaiyM5N8" version="13.7.8" type="github" pages="2">
  <diagram name="Page-1" id="5f0bae14-7c28-e335-631c-24af17079c00">
    <mxGraphModel dx="1422" dy="883" grid="1" gridSize="10" guides="1" tooltips="1" connect="1" arrows="1" fold="1" page="1" pageScale="1" pageWidth="1100" pageHeight="850" background="#ffffff" math="0" shadow="0">
      <root>
        <mxCell id="0" />
        <mxCell id="1" parent="0" />
        <mxCell id="39150e848f15840c-1" value="Block" style="verticalAlign=top;align=left;spacingTop=8;spacingLeft=2;spacingRight=12;shape=cube;size=10;direction=south;fontStyle=4;html=1;rounded=0;shadow=0;comic=0;labelBackgroundColor=none;strokeWidth=1;fontFamily=Verdana;fontSize=12" parent="1" vertex="1">
          <mxGeometry x="120" y="70" width="330" height="220" as="geometry" />
        </mxCell>
        <mxCell id="39150e848f15840c-2" value="Block" style="verticalAlign=top;align=left;spacingTop=8;spacingLeft=2;spacingRight=12;shape=cube;size=10;direction=south;fontStyle=4;html=1;rounded=0;shadow=0;comic=0;labelBackgroundColor=none;strokeWidth=1;fontFamily=Verdana;fontSize=12" parent="1" vertex="1">
          <mxGeometry x="530" y="70" width="330" height="220" as="geometry" />
        </mxCell>
        <mxCell id="39150e848f15840c-3" value="Block" style="verticalAlign=top;align=left;spacingTop=8;spacingLeft=2;spacingRight=12;shape=cube;size=10;direction=south;fontStyle=4;html=1;rounded=0;shadow=0;comic=0;labelBackgroundColor=none;strokeWidth=1;fontFamily=Verdana;fontSize=12" parent="1" vertex="1">
          <mxGeometry x="370" y="410" width="260" height="150" as="geometry" />
        </mxCell>
        <mxCell id="39150e848f15840c-4" value="&amp;laquo;interface&amp;raquo;&lt;br&gt;&lt;b&gt;Name&lt;/b&gt;" style="html=1;rounded=0;shadow=0;comic=0;labelBackgroundColor=none;strokeWidth=1;fontFamily=Verdana;fontSize=12;align=center;" parent="1" vertex="1">
          <mxGeometry x="160" y="140" width="110" height="50" as="geometry" />
        </mxCell>
        <mxCell id="39150e848f15840c-5" value="Module" style="shape=component;align=left;spacingLeft=36;rounded=0;shadow=0;comic=0;labelBackgroundColor=none;strokeWidth=1;fontFamily=Verdana;fontSize=12;html=1;" parent="1" vertex="1">
          <mxGeometry x="310" y="135" width="120" height="60" as="geometry" />
        </mxCell>
        <mxCell id="39150e848f15840c-6" value="" style="ellipse;whiteSpace=wrap;html=1;rounded=0;shadow=0;comic=0;labelBackgroundColor=none;strokeWidth=1;fontFamily=Verdana;fontSize=12;align=center;" parent="1" vertex="1">
          <mxGeometry x="360" y="230" width="20" height="20" as="geometry" />
        </mxCell>
        <mxCell id="39150e848f15840c-7" value="Module" style="shape=component;align=left;spacingLeft=36;rounded=0;shadow=0;comic=0;labelBackgroundColor=none;strokeWidth=1;fontFamily=Verdana;fontSize=12;html=1;" parent="1" vertex="1">
          <mxGeometry x="560" y="135" width="120" height="60" as="geometry" />
        </mxCell>
        <mxCell id="39150e848f15840c-8" value="&amp;laquo;interface&amp;raquo;&lt;br&gt;&lt;b&gt;Name&lt;/b&gt;" style="html=1;rounded=0;shadow=0;comic=0;labelBackgroundColor=none;strokeWidth=1;fontFamily=Verdana;fontSize=12;align=center;" parent="1" vertex="1">
          <mxGeometry x="720" y="140" width="110" height="50" as="geometry" />
        </mxCell>
        <mxCell id="39150e848f15840c-9" value="" style="ellipse;whiteSpace=wrap;html=1;rounded=0;shadow=0;comic=0;labelBackgroundColor=none;strokeWidth=1;fontFamily=Verdana;fontSize=12;align=center;" parent="1" vertex="1">
          <mxGeometry x="620" y="230" width="20" height="20" as="geometry" />
        </mxCell>
        <mxCell id="39150e848f15840c-10" value="Module" style="shape=component;align=left;spacingLeft=36;rounded=0;shadow=0;comic=0;labelBackgroundColor=none;strokeWidth=1;fontFamily=Verdana;fontSize=12;html=1;" parent="1" vertex="1">
          <mxGeometry x="440" y="460" width="120" height="60" as="geometry" />
        </mxCell>
        <mxCell id="39150e848f15840c-11" style="edgeStyle=none;rounded=0;html=1;dashed=1;labelBackgroundColor=none;startArrow=none;startFill=0;startSize=8;endArrow=open;endFill=0;endSize=16;fontFamily=Verdana;fontSize=12;" parent="1" source="39150e848f15840c-10" target="39150e848f15840c-6" edge="1">
          <mxGeometry relative="1" as="geometry" />
        </mxCell>
        <mxCell id="39150e848f15840c-12" style="edgeStyle=none;rounded=0;html=1;dashed=1;labelBackgroundColor=none;startArrow=none;startFill=0;startSize=8;endArrow=open;endFill=0;endSize=16;fontFamily=Verdana;fontSize=12;" parent="1" source="39150e848f15840c-3" target="39150e848f15840c-9" edge="1">
          <mxGeometry relative="1" as="geometry" />
        </mxCell>
        <mxCell id="39150e848f15840c-13" style="edgeStyle=elbowEdgeStyle;rounded=0;html=1;labelBackgroundColor=none;startArrow=none;startFill=0;startSize=8;endArrow=none;endFill=0;endSize=16;fontFamily=Verdana;fontSize=12;" parent="1" source="39150e848f15840c-9" target="39150e848f15840c-7" edge="1">
          <mxGeometry relative="1" as="geometry" />
        </mxCell>
        <mxCell id="39150e848f15840c-14" style="edgeStyle=elbowEdgeStyle;rounded=0;html=1;labelBackgroundColor=none;startArrow=none;startFill=0;startSize=8;endArrow=none;endFill=0;endSize=16;fontFamily=Verdana;fontSize=12;" parent="1" source="39150e848f15840c-6" target="39150e848f15840c-5" edge="1">
          <mxGeometry relative="1" as="geometry" />
        </mxCell>
        <mxCell id="39150e848f15840c-15" style="edgeStyle=orthogonalEdgeStyle;rounded=0;html=1;labelBackgroundColor=none;startArrow=none;startFill=0;startSize=8;endArrow=open;endFill=0;endSize=16;fontFamily=Verdana;fontSize=12;dashed=1;" parent="1" source="39150e848f15840c-5" target="39150e848f15840c-4" edge="1">
          <mxGeometry relative="1" as="geometry">
            <Array as="points">
              <mxPoint x="350" y="220" />
              <mxPoint x="215" y="220" />
            </Array>
          </mxGeometry>
        </mxCell>
        <mxCell id="39150e848f15840c-16" style="edgeStyle=orthogonalEdgeStyle;rounded=0;html=1;dashed=1;labelBackgroundColor=none;startArrow=none;startFill=0;startSize=8;endArrow=open;endFill=0;endSize=16;fontFamily=Verdana;fontSize=12;" parent="1" source="39150e848f15840c-7" target="39150e848f15840c-8" edge="1">
          <mxGeometry relative="1" as="geometry" />
        </mxCell>
        <mxCell id="39150e848f15840c-17" style="edgeStyle=orthogonalEdgeStyle;rounded=0;html=1;labelBackgroundColor=none;startArrow=none;startFill=0;startSize=8;endArrow=none;endFill=0;endSize=16;fontFamily=Verdana;fontSize=12;" parent="1" source="39150e848f15840c-3" target="39150e848f15840c-2" edge="1">
          <mxGeometry relative="1" as="geometry">
            <Array as="points">
              <mxPoint x="695" y="485" />
            </Array>
          </mxGeometry>
        </mxCell>
        <mxCell id="39150e848f15840c-18" style="edgeStyle=orthogonalEdgeStyle;rounded=0;html=1;labelBackgroundColor=none;startArrow=none;startFill=0;startSize=8;endArrow=none;endFill=0;endSize=16;fontFamily=Verdana;fontSize=12;" parent="1" source="39150e848f15840c-3" target="39150e848f15840c-1" edge="1">
          <mxGeometry relative="1" as="geometry">
            <Array as="points">
              <mxPoint x="285" y="485" />
            </Array>
          </mxGeometry>
        </mxCell>
      </root>
    </mxGraphModel>
  </diagram>
  <diagram id="AKrQitsc3zYpJZuArllB" name="Page-2">
    <mxGraphModel dx="1422" dy="883" grid="1" gridSize="10" guides="1" tooltips="1" connect="1" arrows="1" fold="1" page="1" pageScale="1" pageWidth="827" pageHeight="1169" math="0" shadow="0">
      <root>
        <mxCell id="AmNQJRws6kkaYCXH2eg7-0" />
        <mxCell id="AmNQJRws6kkaYCXH2eg7-1" parent="AmNQJRws6kkaYCXH2eg7-0" />
        <mxCell id="AmNQJRws6kkaYCXH2eg7-35" value="&lt;div&gt;Client&lt;/div&gt;" style="verticalAlign=top;align=left;spacingTop=8;spacingLeft=2;spacingRight=12;shape=cube;size=10;direction=south;fontStyle=4;html=1;" vertex="1" parent="AmNQJRws6kkaYCXH2eg7-1">
          <mxGeometry x="630" y="150" width="430" height="250" as="geometry" />
        </mxCell>
        <mxCell id="AmNQJRws6kkaYCXH2eg7-30" value="SimKernel" style="verticalAlign=top;align=left;spacingTop=8;spacingLeft=2;spacingRight=12;shape=cube;size=10;direction=south;fontStyle=4;html=1;" vertex="1" parent="AmNQJRws6kkaYCXH2eg7-1">
          <mxGeometry x="50" y="150" width="500" height="200" as="geometry" />
        </mxCell>
        <mxCell id="AmNQJRws6kkaYCXH2eg7-14" value="CommonCore" style="verticalAlign=top;align=left;spacingTop=8;spacingLeft=2;spacingRight=12;shape=cube;size=10;direction=south;fontStyle=4;html=1;" vertex="1" parent="AmNQJRws6kkaYCXH2eg7-1">
          <mxGeometry x="40" y="440" width="780" height="260" as="geometry" />
        </mxCell>
        <mxCell id="AmNQJRws6kkaYCXH2eg7-18" style="edgeStyle=orthogonalEdgeStyle;rounded=0;orthogonalLoop=1;jettySize=auto;html=1;entryX=0.5;entryY=0;entryDx=0;entryDy=0;" edge="1" parent="AmNQJRws6kkaYCXH2eg7-1" source="AmNQJRws6kkaYCXH2eg7-2" target="AmNQJRws6kkaYCXH2eg7-5">
          <mxGeometry relative="1" as="geometry">
            <Array as="points">
              <mxPoint x="355" y="535" />
              <mxPoint x="355" y="460" />
              <mxPoint x="570" y="460" />
            </Array>
          </mxGeometry>
        </mxCell>
        <mxCell id="AmNQJRws6kkaYCXH2eg7-2" value="Time Management&#xa;(time)&#xa;" style="shape=module;align=left;spacingLeft=20;align=center;verticalAlign=top;" vertex="1" parent="AmNQJRws6kkaYCXH2eg7-1">
          <mxGeometry x="70" y="500" width="140" height="70" as="geometry" />
        </mxCell>
        <mxCell id="AmNQJRws6kkaYCXH2eg7-17" style="edgeStyle=orthogonalEdgeStyle;rounded=0;orthogonalLoop=1;jettySize=auto;html=1;exitX=0;exitY=0;exitDx=0;exitDy=35;exitPerimeter=0;entryX=1;entryY=0.5;entryDx=0;entryDy=0;" edge="1" parent="AmNQJRws6kkaYCXH2eg7-1" source="AmNQJRws6kkaYCXH2eg7-4" target="AmNQJRws6kkaYCXH2eg7-2">
          <mxGeometry relative="1" as="geometry" />
        </mxCell>
        <mxCell id="AmNQJRws6kkaYCXH2eg7-25" style="edgeStyle=orthogonalEdgeStyle;rounded=0;orthogonalLoop=1;jettySize=auto;html=1;" edge="1" parent="AmNQJRws6kkaYCXH2eg7-1" source="AmNQJRws6kkaYCXH2eg7-4" target="AmNQJRws6kkaYCXH2eg7-8">
          <mxGeometry relative="1" as="geometry">
            <Array as="points">
              <mxPoint x="590" y="250" />
              <mxPoint x="590" y="575" />
            </Array>
          </mxGeometry>
        </mxCell>
        <mxCell id="AmNQJRws6kkaYCXH2eg7-28" style="edgeStyle=orthogonalEdgeStyle;rounded=0;orthogonalLoop=1;jettySize=auto;html=1;exitX=0.5;exitY=0;exitDx=0;exitDy=0;" edge="1" parent="AmNQJRws6kkaYCXH2eg7-1" source="AmNQJRws6kkaYCXH2eg7-4" target="AmNQJRws6kkaYCXH2eg7-12">
          <mxGeometry relative="1" as="geometry">
            <Array as="points">
              <mxPoint x="325" y="215" />
              <mxPoint x="325" y="200" />
              <mxPoint x="70" y="200" />
              <mxPoint x="70" y="645" />
            </Array>
          </mxGeometry>
        </mxCell>
        <mxCell id="AmNQJRws6kkaYCXH2eg7-4" value="Simulation &#xa;Management&#xa;(simexec)" style="shape=module;align=left;spacingLeft=20;align=center;verticalAlign=top;" vertex="1" parent="AmNQJRws6kkaYCXH2eg7-1">
          <mxGeometry x="240" y="215" width="130" height="70" as="geometry" />
        </mxCell>
        <mxCell id="AmNQJRws6kkaYCXH2eg7-15" style="edgeStyle=orthogonalEdgeStyle;rounded=0;orthogonalLoop=1;jettySize=auto;html=1;entryX=0.5;entryY=0;entryDx=0;entryDy=0;" edge="1" parent="AmNQJRws6kkaYCXH2eg7-1" source="AmNQJRws6kkaYCXH2eg7-5" target="AmNQJRws6kkaYCXH2eg7-12">
          <mxGeometry relative="1" as="geometry" />
        </mxCell>
        <mxCell id="AmNQJRws6kkaYCXH2eg7-27" style="edgeStyle=orthogonalEdgeStyle;rounded=0;orthogonalLoop=1;jettySize=auto;html=1;entryX=0;entryY=0.75;entryDx=10;entryDy=0;entryPerimeter=0;" edge="1" parent="AmNQJRws6kkaYCXH2eg7-1" source="AmNQJRws6kkaYCXH2eg7-5" target="AmNQJRws6kkaYCXH2eg7-7">
          <mxGeometry relative="1" as="geometry">
            <Array as="points">
              <mxPoint x="450" y="505" />
              <mxPoint x="450" y="638" />
            </Array>
          </mxGeometry>
        </mxCell>
        <mxCell id="AmNQJRws6kkaYCXH2eg7-5" value="Communication&#xa; Management&#xa;(com)&#xa;" style="shape=module;align=left;spacingLeft=20;align=center;verticalAlign=top;" vertex="1" parent="AmNQJRws6kkaYCXH2eg7-1">
          <mxGeometry x="500" y="470" width="140" height="70" as="geometry" />
        </mxCell>
        <mxCell id="AmNQJRws6kkaYCXH2eg7-16" style="edgeStyle=orthogonalEdgeStyle;rounded=0;orthogonalLoop=1;jettySize=auto;html=1;" edge="1" parent="AmNQJRws6kkaYCXH2eg7-1" source="AmNQJRws6kkaYCXH2eg7-7" target="AmNQJRws6kkaYCXH2eg7-12">
          <mxGeometry relative="1" as="geometry">
            <Array as="points">
              <mxPoint x="400" y="405" />
              <mxPoint x="280" y="405" />
              <mxPoint x="280" y="645" />
            </Array>
          </mxGeometry>
        </mxCell>
        <mxCell id="AmNQJRws6kkaYCXH2eg7-21" style="edgeStyle=orthogonalEdgeStyle;rounded=0;orthogonalLoop=1;jettySize=auto;html=1;entryX=0.5;entryY=1;entryDx=0;entryDy=0;" edge="1" parent="AmNQJRws6kkaYCXH2eg7-1" source="AmNQJRws6kkaYCXH2eg7-7" target="AmNQJRws6kkaYCXH2eg7-8">
          <mxGeometry relative="1" as="geometry" />
        </mxCell>
        <mxCell id="AmNQJRws6kkaYCXH2eg7-7" value="Log and Tracing&#xa;(log)" style="shape=module;align=left;spacingLeft=20;align=center;verticalAlign=top;" vertex="1" parent="AmNQJRws6kkaYCXH2eg7-1">
          <mxGeometry x="344" y="585" width="140" height="70" as="geometry" />
        </mxCell>
        <mxCell id="AmNQJRws6kkaYCXH2eg7-8" value="Persistency&#xa;(per)&#xa;&#xa;" style="shape=module;align=left;spacingLeft=20;align=center;verticalAlign=top;" vertex="1" parent="AmNQJRws6kkaYCXH2eg7-1">
          <mxGeometry x="670" y="540" width="140" height="70" as="geometry" />
        </mxCell>
        <mxCell id="AmNQJRws6kkaYCXH2eg7-12" value="«Annotation»&lt;br&gt;&lt;div&gt;&lt;b&gt;util&lt;/b&gt;&lt;/div&gt;&lt;div&gt;&lt;b&gt;&lt;br&gt;&lt;/b&gt;&lt;/div&gt;" style="html=1;dropTarget=0;" vertex="1" parent="AmNQJRws6kkaYCXH2eg7-1">
          <mxGeometry x="80" y="610" width="120" height="70" as="geometry" />
        </mxCell>
        <mxCell id="AmNQJRws6kkaYCXH2eg7-13" value="" style="shape=module;jettyWidth=8;jettyHeight=4;" vertex="1" parent="AmNQJRws6kkaYCXH2eg7-12">
          <mxGeometry x="1" width="20" height="20" relative="1" as="geometry">
            <mxPoint x="-27" y="7" as="offset" />
          </mxGeometry>
        </mxCell>
        <mxCell id="AmNQJRws6kkaYCXH2eg7-32" value="«Annotation»&lt;br&gt;&lt;div&gt;&lt;b&gt;User Interface &lt;br&gt;&lt;/b&gt;&lt;/div&gt;&lt;div&gt;&lt;b&gt;(ui)&lt;br&gt;&lt;/b&gt;&lt;/div&gt;" style="html=1;dropTarget=0;" vertex="1" parent="AmNQJRws6kkaYCXH2eg7-1">
          <mxGeometry x="870" y="270" width="120" height="90" as="geometry" />
        </mxCell>
        <mxCell id="AmNQJRws6kkaYCXH2eg7-33" value="" style="shape=module;jettyWidth=8;jettyHeight=4;" vertex="1" parent="AmNQJRws6kkaYCXH2eg7-32">
          <mxGeometry x="1" width="20" height="20" relative="1" as="geometry">
            <mxPoint x="-27" y="7" as="offset" />
          </mxGeometry>
        </mxCell>
        <mxCell id="AmNQJRws6kkaYCXH2eg7-43" style="edgeStyle=orthogonalEdgeStyle;rounded=0;orthogonalLoop=1;jettySize=auto;html=1;entryX=0;entryY=0.25;entryDx=0;entryDy=0;" edge="1" parent="AmNQJRws6kkaYCXH2eg7-1" source="AmNQJRws6kkaYCXH2eg7-36" target="AmNQJRws6kkaYCXH2eg7-32">
          <mxGeometry relative="1" as="geometry" />
        </mxCell>
        <mxCell id="AmNQJRws6kkaYCXH2eg7-36" value="TableBasedPanel" style="shape=module;align=left;spacingLeft=20;align=center;verticalAlign=top;" vertex="1" parent="AmNQJRws6kkaYCXH2eg7-1">
          <mxGeometry x="640" y="185" width="130" height="50" as="geometry" />
        </mxCell>
        <mxCell id="AmNQJRws6kkaYCXH2eg7-41" style="edgeStyle=orthogonalEdgeStyle;rounded=0;orthogonalLoop=1;jettySize=auto;html=1;" edge="1" parent="AmNQJRws6kkaYCXH2eg7-1" source="AmNQJRws6kkaYCXH2eg7-38" target="AmNQJRws6kkaYCXH2eg7-32">
          <mxGeometry relative="1" as="geometry" />
        </mxCell>
        <mxCell id="AmNQJRws6kkaYCXH2eg7-38" value="DataRecorder&amp;Analysis" style="shape=module;align=left;spacingLeft=20;align=center;verticalAlign=top;" vertex="1" parent="AmNQJRws6kkaYCXH2eg7-1">
          <mxGeometry x="830" y="170" width="160" height="50" as="geometry" />
        </mxCell>
        <mxCell id="AmNQJRws6kkaYCXH2eg7-42" style="edgeStyle=orthogonalEdgeStyle;rounded=0;orthogonalLoop=1;jettySize=auto;html=1;" edge="1" parent="AmNQJRws6kkaYCXH2eg7-1" source="AmNQJRws6kkaYCXH2eg7-39" target="AmNQJRws6kkaYCXH2eg7-32">
          <mxGeometry relative="1" as="geometry" />
        </mxCell>
        <mxCell id="AmNQJRws6kkaYCXH2eg7-39" value="VisualBasePanel" style="shape=module;align=left;spacingLeft=20;align=center;verticalAlign=top;" vertex="1" parent="AmNQJRws6kkaYCXH2eg7-1">
          <mxGeometry x="650" y="310" width="130" height="50" as="geometry" />
        </mxCell>
      </root>
    </mxGraphModel>
  </diagram>
</mxfile>
